# xmcd
#
# Track frame offsets: 
#        150
#        12990
#        20081
#        28094
#        40194
#        48239
#        58393
#        65290
#        79780
#        86647
#        97400
#
# Disc length: 1460 seconds
#
# Revision: 0
# Processed by: cddbd v1.5.2PL0 Copyright (c) Steve Scherf et al.
# Submitted via: ExactAudioCopy v0.95b3
#
DISCID=9305b20b
DTITLE=Dave Clark Five  - Weekend In London - 3-65  FLAC
DYEAR=1900
DGENRE=
TTITLE0=Come Home
TTITLE1=We'll Be Running
TTITLE2=Blue Suede Shoes
TTITLE3=Hurting Inside
TTITLE4=I'll Never Know
TTITLE5='Til the Right One Comes Along
TTITLE6=I'm Thinking
TTITLE7=Your Turn to Cry
TTITLE8=Little Bitty Pretty One
TTITLE9=Remember It's Me
TTITLE10=Mighty Good Lovin'
EXTD=
EXTT0=
EXTT1=
EXTT2=
EXTT3=
EXTT4=
EXTT5=
EXTT6=
EXTT7=
EXTT8=
EXTT9=
EXTT10=
PLAYORDER=
